<?xml version="1.0" encoding="utf-8"?>
<!-- Generator: Adobe Illustrator 21.0.1, SVG Export Plug-In . SVG Version: 6.00 Build 0)  -->
<svg version="1.1" id="Слой_1" xmlns="http://www.w3.org/2000/svg" xmlns:xlink="http://www.w3.org/1999/xlink" x="0px" y="0px"
	 viewBox="0 0 27 16" style="enable-background:new 0 0 27 16;" xml:space="preserve">
<style type="text/css">
	.st0{fill:#FFFFFF;}
</style>
<path class="st0" d="M25.2,6.7H1.8C1,6.7,0.4,7.2,0.4,7.9v0.1c0,0.7,0.6,1.3,1.4,1.3h23.5c0.8,0,1.4-0.6,1.4-1.3V7.9
	C26.6,7.2,26,6.7,25.2,6.7z"/>
<path class="st0" d="M25.2,0H1.8C1,0,0.4,0.6,0.4,1.3v0.1c0,0.7,0.6,1.3,1.4,1.3h23.5c0.8,0,1.4-0.6,1.4-1.3V1.3
	C26.6,0.6,26,0,25.2,0z"/>
<path class="st0" d="M25.2,13.3H1.8c-0.8,0-1.4,0.6-1.4,1.3v0.1C0.4,15.4,1,16,1.8,16h23.5c0.8,0,1.4-0.6,1.4-1.3v-0.1
	C26.6,13.9,26,13.3,25.2,13.3z"/>
</svg>
